<?xml version="1.0" encoding="utf-8"?>
<!-- Generator: Adobe Illustrator 24.1.2, SVG Export Plug-In . SVG Version: 6.00 Build 0)  -->
<svg version="1.1" id="Слой_1" xmlns="http://www.w3.org/2000/svg" xmlns:xlink="http://www.w3.org/1999/xlink" x="0px" y="0px"
	 viewBox="0 0 1920 1080" style="enable-background:new 0 0 1920 1080;" xml:space="preserve">
<style type="text/css">
	.st0{fill:#006F51;}
	.st1{fill:#FFFFFF;}
	.st2{fill:none;}
	.st3{font-family:'Roboto-BlackItalic';}
	.st4{font-size:200px;}
	.st5{fill:none;stroke:#000000;stroke-miterlimit:10;}
</style>
<polygon class="st0" points="491.2,27 8.8,277.4 152.4,331 "/>
<path class="st0" d="M155.2,334.2l47.6,137.2l68.4-99.2l-48.4-20.4l0,0L494,28.6L155.2,334.2L155.2,334.2z"/>
<path class="st0" d="M423.6,433l77.2-408L228.4,351.4L423.6,433z M458,115.4c0.4-1.2,1.2-1.6,2.4-1.6c1.2,0.4,1.6,1.2,1.6,2.4
	l-5.6,30.4c0,0.8-1.2,1.6-2,1.6H454c-1.2-0.4-1.6-1.2-1.6-2.4L458,115.4z M448.8,174.2c1.2,0.4,1.6,1.2,1.6,2.4l-42.8,226.8
	c0,0.8-1.2,1.6-2,1.6h-0.4c-1.2-0.4-1.6-1.2-1.6-2.4l42.8-226.8C446.8,174.6,447.6,174.2,448.8,174.2z"/>
<path class="st1" d="M152.8,337.4c-0.4,0-0.8,0-1.6-0.4L2.4,281c-1.6-0.4-2.4-2-2.4-3.6s0.8-3.2,2-3.6L502,14.2
	c1.6-0.8,4-0.4,5.2,1.2s0.8,4-0.8,5.2L155.2,336.2C154.8,337,154,337.4,152.8,337.4z M14,277l138,52L478,36.2L14,277z"/>
<path class="st1" d="M201.6,479.4c-1.6,0-3.2-1.2-3.6-2.8l-48.8-142c-0.8-2,0.4-4.4,2.4-5.2s4.4,0.4,5.2,2.4l44,127.6L221.2,351
	c0-0.4,0-0.4,0.4-0.8l0,0l0,0l0,0l0,0l0,0l0,0l0,0l0,0l0,0c0-0.4,0.4-0.8,0.8-1.2L501.6,15c1.2-1.6,3.2-2,4.8-1.2s2.4,2.4,2.4,4.4
	l-79.2,418c-0.4,1.2-0.8,2.4-2,2.8c-1.2,0.4-2.4,0.8-3.6,0l-195.6-82L206,475.4C205.2,477.8,203.6,479,201.6,479.4
	C202,479.4,201.6,479.4,201.6,479.4z M231.6,350.6L422,430.2l75.2-398L231.6,350.6z"/>
<path class="st1" d="M201.6,479.4c-0.8,0-1.6-0.4-2.4-0.8c-2-1.2-2.4-3.6-1.2-5.6l52.4-79.2c1.2-2,3.6-2.4,5.6-1.2s2.4,3.6,1.2,5.6
	l-52.4,79.2C204.4,478.6,202.8,479.4,201.6,479.4z"/>
<path class="st1" d="M454,149.8c-0.4,0-0.4,0-0.8,0c-2-0.4-3.6-2.4-3.2-4.8l5.6-30.4c0.4-2,2.4-3.6,4.8-3.2c2,0.4,3.6,2.4,3.2,4.8
	l-5.6,30.4C457.6,148.6,456,149.8,454,149.8z"/>
<path class="st1" d="M405.6,406.6c-0.4,0-0.4,0-0.8,0c-2-0.4-3.6-2.4-3.2-4.8L444.4,175c0.4-2,2.4-3.6,4.8-3.2
	c2,0.4,3.6,2.4,3.2,4.8l-42.8,226.8C409.2,405.4,407.6,406.6,405.6,406.6z"/>
<rect x="544.2" y="144" class="st2" width="1082.4" height="204.9"/>
<text transform="matrix(1 0 0 1 544.2469 296.3508)" class="st1 st3 st4">Выпускник</text>
<text transform="matrix(1 0 0 1 544.2469 296.3508)" class="st5 st3 st4">Выпускник</text>
</svg>
